<svg width="20" height="28" fill="none" xmlns="http://www.w3.org/2000/svg"><g clip-path="url(#clip0)" fill="#F4F4F4"><path d="M1.972 21.174l3.841 6.82 1.944-3.448-3.847-6.82-1.938 3.448zm18.039-3.448l-1.943-3.442-3.842 6.82 1.938 3.443 3.847-6.821z"/><path d="M11.96 17.09l-1.937 3.447 4.203 7.457 1.938-3.448-4.204-7.457zm-11.932.636l1.944 3.447 8.05-14.277L8.08 3.454.029 17.725z"/><path d="M11.96 17.09l-1.938-3.442-4.209 7.457 1.944 3.442 4.203-7.457zm6.108-2.806L10.023.005 8.079 3.454l1.944 3.442 6.107 10.83 1.938-3.442z"/></g><defs><clipPath id="clip0"><path fill="#fff" d="M0 0h20v28H0z"/></clipPath></defs></svg>