<svg width="94" height="94" fill="none" xmlns="http://www.w3.org/2000/svg"><circle cx="47" cy="47" r="47" fill="#E8232E"/><path d="M50.021 42.079l-.943-.333-.47 1.333h1.413v-1zM51.56 28.22l-.428.904.428-.904zm-2.657.508l.741.671-.74-.671zm16.062 15.807l-.982-.188.982.188zM61.36 63.29l.982.189-.982-.189zm-7.539-31.998l-.943-.332.943.332zm-1.104-2.523l.428-.904-.428.904zM27 62.916a1 1 0 102 0h-2zm2-18.753a1 1 0 10-2 0h2zm6.808-1.313v20.066h2V42.85h-2zM39.011 66h20.183v-2H39.01v2zm23.331-2.522l3.604-18.754-1.964-.377L60.378 63.1l1.964.378zm.455-22.4H50.021v2h12.776v-2zm-11.833 1.333l3.8-10.788-1.886-.665-3.8 10.788 1.886.665zm2.18-14.547l-1.157-.548-.856 1.808 1.158.548.856-1.808zm-4.983.192L36.597 40.822l1.483 1.343 11.563-12.766-1.482-1.343zm3.826-.74c-1.291-.61-2.864-.321-3.826.74l1.482 1.343c.354-.39.971-.52 1.488-.275l.856-1.808zm13.959 17.408c.377-1.961-1.215-3.645-3.149-3.645v2c.815 0 1.3.67 1.185 1.268l1.964.377zM59.194 66c1.505 0 2.86-1.024 3.148-2.522l-1.964-.378c-.092.483-.56.9-1.184.9v2zm-23.386-3.084c0 1.755 1.487 3.084 3.203 3.084v-2c-.717 0-1.203-.536-1.203-1.084h-2zm18.956-31.293c.528-1.496-.205-3.09-1.62-3.759l-.855 1.808c.546.258.755.815.59 1.287l1.886.664zM37.808 42.85c0-.243.092-.486.272-.685l-1.483-1.343a3.019 3.019 0 00-.789 2.028h2zM29 62.916V44.163h-2v18.753h2z" fill="#fff"/></svg>