<svg width="94" height="94" fill="none" xmlns="http://www.w3.org/2000/svg"><circle cx="47" cy="47" r="47" fill="#E8232E"/><path d="M28 29v-1h-1v1h1zm35.766 17.883l-.708.707.708-.707zM45.883 64.766l.707-.708-.707.707zm.308-35.457l.707-.707-.707.707zM28.31 47.19l-.707.707.707-.707zm9.415-4.072a3.108 3.108 0 004.395 0l-1.414-1.414a1.107 1.107 0 01-1.566 0l-1.415 1.414zm4.395 0a3.108 3.108 0 000-4.395l-1.414 1.415a1.108 1.108 0 010 1.566l1.414 1.414zm0-4.395a3.107 3.107 0 00-4.395 0l1.415 1.415a1.107 1.107 0 011.566 0l1.414-1.415zm-4.395 0a3.107 3.107 0 000 4.395l1.415-1.414a1.108 1.108 0 010-1.566l-1.415-1.415zM29 46.447V29h-2v17.446h2zM28 30h17.446v-2H28v2zm17.484.016L63.058 47.59l1.415-1.414L46.898 28.6l-1.414 1.415zM63.058 47.59a3.215 3.215 0 010 4.546l1.415 1.415a5.215 5.215 0 000-7.375l-1.415 1.414zm0 4.546L51.136 64.058l1.415 1.415L64.473 53.55l-1.415-1.415zM51.136 64.058a3.215 3.215 0 01-4.546 0l-1.414 1.415a5.215 5.215 0 007.375 0l-1.415-1.415zm-4.546 0L29.016 46.484l-1.414 1.414 17.574 17.575 1.414-1.415zM45.446 30c.015 0 .028.006.038.016l1.414-1.414A2.054 2.054 0 0045.447 28v2zM27 46.446c0 .545.216 1.067.602 1.453l1.414-1.415a.054.054 0 01-.016-.038h-2z" fill="#fff"/></svg>