<svg width="54" height="73" fill="none" xmlns="http://www.w3.org/2000/svg"><path d="M26.688 0C11.972 0 0 12.187 0 27.168c0 8.379 4.238 18.55 12.597 30.229 6.117 8.547 12.144 14.643 12.398 14.898a2.38 2.38 0 001.694.705c.596 0 1.192-.222 1.655-.668.254-.244 6.297-6.093 12.426-14.523 8.365-11.506 12.606-21.815 12.606-30.641C53.377 12.188 41.404 0 26.689 0zm0 38.896c-7.194 0-13.047-5.853-13.047-13.047 0-7.195 5.853-13.048 13.047-13.048 7.195 0 13.048 5.853 13.048 13.048 0 7.194-5.854 13.047-13.048 13.047z" fill="#E8232E"/></svg>